<?xml version="1.0" standalone="no"?><svg xmlns="http://www.w3.org/2000/svg" viewBox="0 0 1440 320"><path fill="#349d8a" fill-opacity="1" d="M0,64L13.3,64C26.7,64,53,64,80,106.7C106.7,149,133,235,160,250.7C186.7,267,213,213,240,170.7C266.7,128,293,96,320,106.7C346.7,117,373,171,400,192C426.7,213,453,203,480,213.3C506.7,224,533,256,560,229.3C586.7,203,613,117,640,90.7C666.7,64,693,96,720,128C746.7,160,773,192,800,202.7C826.7,213,853,203,880,170.7C906.7,139,933,85,960,85.3C986.7,85,1013,139,1040,138.7C1066.7,139,1093,85,1120,80C1146.7,75,1173,117,1200,133.3C1226.7,149,1253,139,1280,138.7C1306.7,139,1333,149,1360,160C1386.7,171,1413,181,1427,186.7L1440,192L1440,320L1426.7,320C1413.3,320,1387,320,1360,320C1333.3,320,1307,320,1280,320C1253.3,320,1227,320,1200,320C1173.3,320,1147,320,1120,320C1093.3,320,1067,320,1040,320C1013.3,320,987,320,960,320C933.3,320,907,320,880,320C853.3,320,827,320,800,320C773.3,320,747,320,720,320C693.3,320,667,320,640,320C613.3,320,587,320,560,320C533.3,320,507,320,480,320C453.3,320,427,320,400,320C373.3,320,347,320,320,320C293.3,320,267,320,240,320C213.3,320,187,320,160,320C133.3,320,107,320,80,320C53.3,320,27,320,13,320L0,320Z"></path></svg>